<svg xmlns="http://www.w3.org/2000/svg" viewBox="0 0 1024 1024"><defs><style>.b3a3e4d4-9703-44e0-a1b6-a45bdc8115b9{fill:#0f16f8;}.b9ef3759-a381-4d9c-9d8f-3142ffe4c1c0{font-size:200px;font-family:BMKIRANGHAERANG-OTF-KSCpc-EUC-H, BM Kirang Haerang;}.b9ef3759-a381-4d9c-9d8f-3142ffe4c1c0,.fc4fe918-3715-4d99-a44c-550e92c7b283{fill:#fff;}.fa5b45b9-7c25-46b3-8bdf-c019d083572d{fill:#f600e1;}</style></defs><g id="f63aac73-d92b-4480-bd1d-40a17a820c01" data-name="Layer 3"><path class="b3a3e4d4-9703-44e0-a1b6-a45bdc8115b9" d="M778.62,131.41c86,55.89,160,135.33,197.25,230.67s36.71,207.11,1.65,304.64C941.9,764.8,871.22,848.08,785.2,904.52S597.81,989.44,496.45,990c-101.92,0-203.83-27.94-282.73-86.57S79.48,756,48.25,659.05C17,562.62,10.45,458,35.65,358.79,61.4,259.62,118.39,165.93,200.57,108.4S389.6,29,492.06,35,692.6,75,778.62,131.41Z"/><text class="b9ef3759-a381-4d9c-9d8f-3142ffe4c1c0" transform="translate(270.03 265.9) rotate(-25.04)">C</text><text class="b9ef3759-a381-4d9c-9d8f-3142ffe4c1c0" transform="translate(357.27 226.14) rotate(-8.4)">h</text><text class="b9ef3759-a381-4d9c-9d8f-3142ffe4c1c0" transform="translate(453.56 213.79) rotate(4.25)">e</text><text class="b9ef3759-a381-4d9c-9d8f-3142ffe4c1c0" transform="translate(537.65 220.28) rotate(13.64)">c</text><text class="b9ef3759-a381-4d9c-9d8f-3142ffe4c1c0" transform="translate(617.93 239.18) rotate(26.42)">k</text><text class="b9ef3759-a381-4d9c-9d8f-3142ffe4c1c0" transform="translate(282.84 872.77) rotate(23.11)">m</text><text class="b9ef3759-a381-4d9c-9d8f-3142ffe4c1c0" transform="matrix(1, -0.06, 0.06, 1, 461.27, 933.78)">a</text><text class="b9ef3759-a381-4d9c-9d8f-3142ffe4c1c0" transform="translate(575.37 922.76) rotate(-13.56)">t</text><text class="b9ef3759-a381-4d9c-9d8f-3142ffe4c1c0" transform="translate(673.44 897.67) rotate(-23.33)">e</text><g id="ee935698-b576-46e1-9e72-78b18e6f43b8" data-name="에이"><path class="fc4fe918-3715-4d99-a44c-550e92c7b283" d="M500.19,345.28c34.37,24.22,50.58,71.13,65.67,118.77,14.82,47.63,27.95,96.47,17.28,141.18-10.68,45-45.45,86-89.16,107.1-44,21.06-96.89,21.85-143.92,13.08-47.3-9-88.71-28.13-125.45-54.26-36.76-25.87-68.82-59.28-80-97.71-10.86-38.42-1-82.13,15.22-124,16-41.64,38.17-81.46,72.9-102.91,34.74-21.72,82.31-25.06,132-26S466.08,321.33,500.19,345.28Z"/><path class="b3a3e4d4-9703-44e0-a1b6-a45bdc8115b9" d="M283.1,478.82l.24,2.69a6.54,6.54,0,0,0,.75,3.37,6.65,6.65,0,0,0,1.81,2.81,6.44,6.44,0,0,0,2.82,1.81,6.6,6.6,0,0,0,3.37.76l2.33-.32a8.69,8.69,0,0,0,3.86-2.25l1.36-1.77a8.67,8.67,0,0,0,1.2-4.41l-.24-2.69a6.63,6.63,0,0,0-.76-3.37,6.5,6.5,0,0,0-1.81-2.82,6.65,6.65,0,0,0-2.81-1.81,6.75,6.75,0,0,0-3.37-.75l-2.33.31a8.82,8.82,0,0,0-3.86,2.25l-1.37,1.77a8.7,8.7,0,0,0-1.19,4.42Z"/><path class="b3a3e4d4-9703-44e0-a1b6-a45bdc8115b9" d="M410.75,453.74l.12,1.34a9.66,9.66,0,0,0,2.56,6.19,9.72,9.72,0,0,0,6.19,2.56l2.32-.31a8.67,8.67,0,0,0,3.87-2.25l1.36-1.77a8.78,8.78,0,0,0,1.2-4.42l-.12-1.34a6.63,6.63,0,0,0-.76-3.37,7.9,7.9,0,0,0-4.62-4.62,6.65,6.65,0,0,0-3.37-.76l-2.33.31a8.75,8.75,0,0,0-3.86,2.26l-1.37,1.77a8.63,8.63,0,0,0-1.19,4.41Z"/><path class="fa5b45b9-7c25-46b3-8bdf-c019d083572d" d="M329.37,506.23a34.65,34.65,0,0,0,13.3,14.35,30.52,30.52,0,0,0,9.07,3.79,26.78,26.78,0,0,0,10.92.09,49.13,49.13,0,0,0,11.15-3.81,40.75,40.75,0,0,0,6.25-3.5,55.79,55.79,0,0,0,12.29-11.57A90.79,90.79,0,0,0,404,485.85c1.05-2.39.78-5.48-1.79-6.84-2.17-1.15-5.72-.76-6.85,1.79a91.2,91.2,0,0,1-9.11,16.36c-.44.6-.87,1.21-1.33,1.79.82-1-.38.45-.58.69-.89,1.08-1.81,2.13-2.78,3.14s-1.72,1.75-2.63,2.57c-.4.37-.8.73-1.22,1.08-.27.23-1.38.86-1.48,1.21l.51-.4-.5.38-.75.54c-.42.3-.85.59-1.28.86-1,.66-2,1.27-3.1,1.84s-2,1-3,1.43c-.8.37,1.08-.42-.29.13l-1.28.5c-.85.33-1.72.63-2.59.9a30.34,30.34,0,0,1-4.86,1.14c1.16-.16-.33,0-.47,0l-.79,0a23.56,23.56,0,0,1-2.38-.09c-1-.07.29.06.3,0s-.88-.16-1-.19c-.64-.13-1.26-.29-1.89-.48s-1.25-.42-1.87-.65c-1.17-.42,1,.49-.15-.07-.33-.16-.67-.31-1-.48a33.88,33.88,0,0,1-4.15-2.54c-.75-.51,0,0,.1.1-.4-.3-.79-.63-1.17-1-.57-.5-1.13-1-1.66-1.54s-1.22-1.26-1.79-1.93l-.48-.57c-.34-.44-.31-.39.1.13l-.43-.59a26.74,26.74,0,0,1-2.35-4c-1.11-2.37-4.71-3.16-6.84-1.79a5.13,5.13,0,0,0-1.79,6.84Z"/></g></g><g id="f51aec35-a9c4-4035-99af-1f324e3be6c8" data-name="Layer 5"><g id="b76f3dd6-3e70-4924-a114-3a905a82729b" data-name="큐"><path class="b3a3e4d4-9703-44e0-a1b6-a45bdc8115b9" d="M734,397.23c28.34,11.78,56.28,23.62,76.12,45.06s31.31,52.27,38.74,84.95c7.39,32.47,10.77,67,2.9,98.08-8.07,31.11-27.38,58.76-51.57,80s-53,36.09-84,42.46c-30.94,6.59-63.77,4.89-93.77-6.81-29.8-11.75-56.78-33.51-79.44-60.34-22.86-26.79-41.36-58.43-49.14-93.1S489,515.43,502.4,484.05s37.14-56.63,63.13-75.94c26.19-19.35,54.73-32.54,83.13-33.47C677.3,373.9,705.81,385.42,734,397.23Z"/><path id="ff5518ac-fce1-497e-8462-1920b6e3cc04" data-name="질문이" class="fc4fe918-3715-4d99-a44c-550e92c7b283" d="M769.42,410.77c27.69,13.06,55,26.16,73.1,47.66s26.92,51.2,31.42,82.34c4.48,30.94,4.7,63.53-6.18,92.07-11.09,28.55-33.28,53.07-59.82,71.24a199.36,199.36,0,0,1-89.29,33.74c-32,3.95-65.21,0-94.58-13.11-29.16-13.14-54.53-35.45-75-62.21-20.72-26.73-36.56-57.69-41.23-90.71s1.85-67.9,18.42-96.32,43-50.38,71.18-66.6c28.4-16.24,58.6-26.55,87.52-25.38C714.07,384.85,742,397.69,769.42,410.77Z"/><path class="b3a3e4d4-9703-44e0-a1b6-a45bdc8115b9" d="M656.73,527.54c3.92,0,7.68-3.45,7.5-7.5a7.63,7.63,0,0,0-7.5-7.5c-3.93,0-7.69,3.45-7.5,7.5a7.63,7.63,0,0,0,7.5,7.5Z"/><path class="b3a3e4d4-9703-44e0-a1b6-a45bdc8115b9" d="M758.81,546.84c3.92,0,7.68-3.45,7.5-7.5a7.63,7.63,0,0,0-7.5-7.5c-3.93,0-7.69,3.45-7.5,7.5a7.63,7.63,0,0,0,7.5,7.5Z"/><path class="b3a3e4d4-9703-44e0-a1b6-a45bdc8115b9" d="M679.37,552.26c.08,6.21.19,12.67,2.24,18.6S687.28,582,693,584.75s12.66,4.89,19.19,3.28c5.77-1.42,10.32-5.75,13.52-10.58,3.78-5.72,5.7-12.53,7.57-19.06l-7.35,3a27,27,0,0,0,10.84,4.4c2.57.41,5.51-.65,6.15-3.49.55-2.39-.73-5.71-3.49-6.15a27.08,27.08,0,0,1-4.77-1.28c-.54-.19.63.32-.21-.11-.4-.2-.8-.38-1.19-.6a24.57,24.57,0,0,1-2.28-1.41c-2.73-1.85-6.51.07-7.35,3-.74,2.59-1.48,5.18-2.35,7.73q-.62,1.83-1.35,3.63c.38-.93-.3.67-.4.87-.31.67-.64,1.34-1,2a31.58,31.58,0,0,1-1.68,2.78c-.18.27-1.08,1.42-.39.58-.41.5-.83,1-1.28,1.47s-.71.74-1.09,1.09-.49.4-.71.62c-.51.49.7-.48.12-.08-.41.28-.81.56-1.23.82l-.81.46-.39.21c.62-.32-.07,0-.25.09l-.7.23c-.29.08-2.11.43-.95.29a17.45,17.45,0,0,1-3.89,0c1.1.11-.56-.13-.84-.19-.58-.13-1.16-.28-1.73-.44a37.24,37.24,0,0,1-3.84-1.36c.85.35.14,0,0,0l-.79-.38a19.9,19.9,0,0,1-1.76-1c-.26-.15-.49-.34-.75-.48-.65-.36.43.42-.05,0s-.93-.84-1.36-1.31c-.18-.19-.33-.39-.51-.58-.48-.51.46.7.07.1s-.66-1-1-1.48-.53-.92-.76-1.4l-.35-.72c-.45-1,.25.8-.12-.3s-.82-2.44-1.12-3.71c-.16-.68-.3-1.37-.41-2.06q-.09-.47-.15-.93c.15,1,0-.33-.06-.55-.34-3.14-.38-6.3-.42-9.46a5,5,0,0,0-10,0Z"/></g></g></svg>