<svg xmlns="http://www.w3.org/2000/svg" viewBox="0 0 1024 1024"><defs><style>.be712322-ee7f-427e-ac1a-378f5aa8bcc6{fill:#fff;}.a47543c8-02f4-4459-af61-19436f1f38bf{fill:#0f16f8;}.e76dd115-68a8-4d73-8b11-16b054e6438d{fill:#f600e1;}</style></defs><g id="a9e7f232-a0a9-4e39-ab6f-911deac72d46" data-name="Layer 3"><g id="b30edaac-e7e0-48a5-81fe-41230ffc9279" data-name="에이"><path class="be712322-ee7f-427e-ac1a-378f5aa8bcc6" d="M806.58,104.46c75.46,53.17,111,156.16,144.18,260.75,32.53,104.56,61.36,211.79,37.93,309.94C965.23,773.87,888.9,864,793,910.29c-96.56,46.22-212.7,48-316,28.71-103.84-19.83-194.75-61.77-275.41-119.13C120.88,763.08,50.49,689.74,26.05,605.37,2.21,521,23.75,425.05,59.47,333.11c35.1-91.41,83.79-178.82,160-225.93,76.27-47.68,180.7-55,289.68-57.06S731.69,51.89,806.58,104.46Z"/><path class="a47543c8-02f4-4459-af61-19436f1f38bf" d="M336.68,397.64l.54,5.89a12.82,12.82,0,0,0,12.5,12.5l3.32-.44a12.55,12.55,0,0,0,5.52-3.22l1.95-2.53a12.48,12.48,0,0,0,1.71-6.31l-.54-5.89A13.8,13.8,0,0,0,358,388.8a13.95,13.95,0,0,0-8.84-3.66l-3.32.45a12.4,12.4,0,0,0-5.51,3.21l-2,2.53a12.48,12.48,0,0,0-1.71,6.31Z"/><path class="a47543c8-02f4-4459-af61-19436f1f38bf" d="M616.93,342.58l.26,2.95a9.47,9.47,0,0,0,1.08,4.81,11.24,11.24,0,0,0,6.61,6.61,9.47,9.47,0,0,0,4.81,1.08l3.33-.45a12.46,12.46,0,0,0,5.51-3.21l2-2.53a12.4,12.4,0,0,0,1.7-6.31l-.26-2.95a9.47,9.47,0,0,0-1.08-4.81,11.17,11.17,0,0,0-6.61-6.61,9.47,9.47,0,0,0-4.81-1.08l-3.33.45a12.46,12.46,0,0,0-5.51,3.21l-2,2.53a12.4,12.4,0,0,0-1.7,6.31Z"/><path class="e76dd115-68a8-4d73-8b11-16b054e6438d" d="M434.56,456.05c5.81,12.51,16.21,23,27.87,30.21a64.16,64.16,0,0,0,18.93,8,54.59,54.59,0,0,0,22.73.18c8.27-1.55,16.18-4.72,23.81-8.18a87.25,87.25,0,0,0,13.53-7.68,119.48,119.48,0,0,0,26.11-24.83,190.45,190.45,0,0,0,22.49-37c.84-1.78,1.65-3.58,2.44-5.38a8.17,8.17,0,0,0,.75-5.78A7.5,7.5,0,0,0,584,400.3c-1.74.56-3.72,1.7-4.48,3.45a193.66,193.66,0,0,1-22.08,38.69l-.78,1c-.48.63.71-.89.61-.79s-.22.29-.33.43c-.53.67-1.05,1.33-1.59,2q-1.51,1.86-3.09,3.67-3,3.48-6.35,6.74c-2.11,2.06-4.29,4.05-6.56,5.93l-1.61,1.31c-.16.13-.82.52-.87.69s1.42-1.09.89-.69l-.5.38c-1.11.85-2.25,1.67-3.4,2.46a95.51,95.51,0,0,1-17.05,9.23l1.79-.76a85.9,85.9,0,0,1-21.66,6.39l2-.27a44.28,44.28,0,0,1-11.27.1l2,.27a51.75,51.75,0,0,1-13-3.64l1.79.76a65.1,65.1,0,0,1-10.17-5.48c-.85-.55-1.68-1.13-2.5-1.72-.41-.29-.81-.6-1.22-.9-1-.77,1.56,1.23,0,0s-3-2.52-4.44-3.87-2.78-2.74-4.08-4.2c-.66-.74-1.31-1.5-1.94-2.28-.36-.43-1.47-2,0,.06-.25-.35-.52-.69-.78-1a57,57,0,0,1-5.81-9.77A7.52,7.52,0,0,0,443,445a7.67,7.67,0,0,0-5.78.75c-3.68,2.37-4.47,6.45-2.69,10.26Z"/></g></g></svg>