<svg width="156" height="75" viewBox="0 0 156 75" fill="none" xmlns="http://www.w3.org/2000/svg">
<path d="M30.548 74.3426C20.5732 73.2959 0 65.4456 0 40.3247C0 8.92358 10.5983 1.59662 30.548 0.549911C50.4978 -0.496794 53.6149 15.2038 53.6149 20.9607C53.6149 28.8109 62.3429 26.7175 62.3429 20.9607C65.6678 13.9826 69.45 0.549911 85.4098 0.549911C97.2549 0.549911 103.489 11.5403 103.489 20.9607C103.489 25.6708 109.1 27.7642 109.1 20.9607C109.1 14.1571 109.1 0.549872 133.414 0.549895C150.246 0.549911 157.104 17.8205 155.857 40.3247C154.61 62.8289 150.246 74.3426 133.414 74.3426C116.581 74.3426 109.1 67.077 109.1 58.1187C109.1 54.4552 103.489 53.4085 103.489 58.1187C103.489 68.0624 100.995 74.3426 85.4098 74.3426C69.824 74.3426 62.3429 65.969 62.3429 60.7355C62.3429 55.5019 53.6149 54.9786 53.6149 60.7355C53.6149 71.2547 40.5229 75.3893 30.548 74.3426Z" fill="#F016DE"/>
</svg>
