<svg xmlns="http://www.w3.org/2000/svg" viewBox="0 0 1024 1024"><defs><style>.f8827eb9-6486-4737-937e-e4dad2fba92c{fill:#0f16f8;}.a27d1193-283b-4c97-8b52-966d0a483145{fill:#fff;}</style></defs><g id="f83eef61-3489-4be1-8b74-f66f0e40ad93" data-name="Layer 2"><path id="ef90e2cc-dd05-4bd7-a5d6-cfd8423fd6cb" data-name="blob" class="f8827eb9-6486-4737-937e-e4dad2fba92c" d="M586.48,34.73C666.9,45.92,746.3,57.53,809.23,97.62S917.88,206,953.9,281.28c35.8,74.79,62.09,157.13,57.1,238C1005.5,600.35,968.71,680,915.87,747s-121.2,121.2-199.41,156c-78,35.33-165.1,51.57-249.84,41.57-84.23-10.21-166.1-46.66-239.18-98.19C153.85,795,89.26,729.17,51.33,649.25s-49-173.39-29.49-258.46,69-161.52,127.56-224.88C208.48,102.33,276.8,52.37,351,32.47,425.84,12.87,506.57,23.33,586.48,34.73Z"/><path class="a27d1193-283b-4c97-8b52-966d0a483145" d="M409.5,415.48a15.47,15.47,0,0,0,10.61-4.39,15.23,15.23,0,0,0,4.39-10.61c-.17-3.87-1.44-7.9-4.39-10.6a15,15,0,0,0-21.21,0,15.28,15.28,0,0,0-4.4,10.6c.18,3.88,1.45,7.91,4.4,10.61a15.54,15.54,0,0,0,10.6,4.39Z"/><path class="a27d1193-283b-4c97-8b52-966d0a483145" d="M631,391.09a15.48,15.48,0,0,0,10.61-4.4,15.23,15.23,0,0,0,4.39-10.6c-.17-3.88-1.45-7.91-4.39-10.61A15.63,15.63,0,0,0,631,361.09a15.47,15.47,0,0,0-10.61,4.39A15.23,15.23,0,0,0,616,376.09c.17,3.88,1.45,7.9,4.39,10.6a15.59,15.59,0,0,0,10.61,4.4Z"/><path class="a27d1193-283b-4c97-8b52-966d0a483145" d="M599.06,493.7c-3.59-13.3-7.37-27-15-38.67a60.48,60.48,0,0,0-13.77-15,42.59,42.59,0,0,0-18.44-7.92c-13.87-2.51-28.91-3-41.79,3.56-11.6,5.88-19,17.38-23.43,29.24-2.76,7.47-4.09,15.35-5,23.24S480.39,504,480.12,512l9.49-7.23a60.71,60.71,0,0,0-26.43-3.1,8.17,8.17,0,0,0-5.3,2.19,7.5,7.5,0,0,0,0,10.61c1.37,1.26,3.37,2.42,5.3,2.2a54.41,54.41,0,0,1,13.13.12l-2-.27a59.25,59.25,0,0,1,11.3,2.71c4.79,1.66,9.34-2.65,9.5-7.23.3-8.75.61-17.51,1.76-26.19l-.27,2a85.86,85.86,0,0,1,5.47-21.47l-.76,1.8A59.37,59.37,0,0,1,504.9,461c.65-1.09,1.34-2.16,2.07-3.2.37-.52,1.95-2.4.3-.45.4-.47.78-1,1.19-1.44.81-.93,1.66-1.83,2.56-2.69.44-.42.9-.84,1.36-1.24l.71-.59c1-.79-.19.25-.51.37a8.35,8.35,0,0,0,1.49-1.07c.56-.37,1.13-.73,1.71-1.07a35.75,35.75,0,0,1,3.91-2l-1.8.76a42.06,42.06,0,0,1,10.51-2.79l-2,.26a74.72,74.72,0,0,1,19.42.35l-2-.27a51.29,51.29,0,0,1,12.76,3.1l-1.79-.75a33.69,33.69,0,0,1,4.11,2.08c.65.39,1.3.8,1.92,1.23s2.57,2.07.65.43a56.43,56.43,0,0,1,6.71,6.59l.76.92c.35.44,1,1.59-.19-.25.44.67,1,1.29,1.42,1.95q1.38,2,2.61,4.07a79.23,79.23,0,0,1,4.69,9.46l-.75-1.79c3.33,8,5.62,16.34,7.87,24.68,1,3.79,5.38,6.48,9.23,5.24a7.64,7.64,0,0,0,5.23-9.23Z"/><path class="a27d1193-283b-4c97-8b52-966d0a483145" d="M409.44,252.1c-8.62,17.4,1.73,37,15.62,48.21a71.49,71.49,0,0,0,46.41,15.93,67.11,67.11,0,0,0,44.62-18.64,70.67,70.67,0,0,0,21.4-43.23c1-9.19,0-19.67-5.41-27.47-5.92-8.56-16.12-14.05-26.63-11.52-9.06,2.18-15.94,10.49-18.12,19.3-2.41,9.74.58,19.95,5.78,28.26,8.48,13.55,21.67,23.27,36.39,29.07a83.46,83.46,0,0,0,44.25,4.28c15.11-2.54,30.09-10.09,40.29-21.66,6.05-6.86,10.52-15,11.74-24.19a36.93,36.93,0,0,0-5.1-24.71,32.26,32.26,0,0,0-9.46-9.55c-3.28-2.17-8.44-.76-10.26,2.69a7.67,7.67,0,0,0,2.69,10.26l.73.49c1,.73-.28-.34-.54-.44a5.58,5.58,0,0,1,1.31,1.13,26.74,26.74,0,0,1,2.23,2.41c.52.61-1.2-1.65-.43-.56l.39.56q.49.72.93,1.47a28.16,28.16,0,0,1,1.57,3.1l-.76-1.79a31.07,31.07,0,0,1,2.11,7.8l-.27-2a32.61,32.61,0,0,1,0,8.14l.27-2a34.49,34.49,0,0,1-2.41,8.57l.75-1.79a40.16,40.16,0,0,1-2.36,4.62c-.42.72-.87,1.42-1.34,2.11-.22.32-.44.64-.67,1-.34.47-1.59,1.85,0,0a70,70,0,0,1-7,7.28c-.64.56-1.3,1.09-2,1.62l.74-.58-.62.47-.95.69q-1.92,1.36-3.93,2.58a63.26,63.26,0,0,1-8.12,4.14l1.79-.75a70.35,70.35,0,0,1-17.84,4.82l2-.27a76.78,76.78,0,0,1-19.92,0l2,.27a77.51,77.51,0,0,1-19.55-5.33l1.79.76a71.9,71.9,0,0,1-9.6-4.94c-1.53-.94-3-1.93-4.48-3l-1.08-.8c-1-.76,1.64,1.3.19.13-.7-.56-1.39-1.13-2.07-1.72a64.1,64.1,0,0,1-7.53-7.75c-.34-.42-1.33-1.9,0,0-.32-.46-.68-.9-1-1.35-.65-.92-1.29-1.85-1.88-2.81a43.43,43.43,0,0,1-3.14-6l.76,1.79a32.46,32.46,0,0,1-2.26-8l.27,2a25.06,25.06,0,0,1-.07-6.3l-.27,2a22.5,22.5,0,0,1,1.5-5.45l-.76,1.79a22.72,22.72,0,0,1,1.64-3.13c.21-.35,1.28-1.79.42-.69s-.14.18.07-.06.38-.44.57-.65c.36-.38.72-.75,1.11-1.1l.65-.56c.66-.58-1.55,1.09-.57.44a19.66,19.66,0,0,1,3-1.67l-1.79.76a15.17,15.17,0,0,1,3.63-1l-2,.27a15.41,15.41,0,0,1,4.07,0l-2-.27a17.76,17.76,0,0,1,3.93,1.09l-1.79-.76a19.81,19.81,0,0,1,3.3,1.78c.27.18.52.37.78.55.67.46-1.5-1.29-.48-.35.47.43.95.84,1.39,1.29s.86.94,1.28,1.42c.7.83-.51-.57-.48-.62s.48.69.54.78a23.9,23.9,0,0,1,2,3.8l-.75-1.8a32.21,32.21,0,0,1,2.15,8.13l-.27-2a50,50,0,0,1-.14,12.53l.27-2a61,61,0,0,1-4.2,15.34l.76-1.79a65.07,65.07,0,0,1-4.21,8.23c-.78,1.3-1.61,2.56-2.49,3.8-.45.64-.93,1.27-1.4,1.9s.72-.88.62-.8a2.79,2.79,0,0,0-.34.43l-.8,1a64.11,64.11,0,0,1-6.42,6.66c-.54.49-1.09,1-1.64,1.43l-.84.69-.43.34c-.78.63.54-.43.66-.5-1.33.78-2.54,1.87-3.84,2.72a60.11,60.11,0,0,1-9.28,4.92l1.79-.76A58.66,58.66,0,0,1,476.08,301l2-.26a63.88,63.88,0,0,1-16.52,0l2,.27a65.71,65.71,0,0,1-16.68-4.56l1.8.76a62.72,62.72,0,0,1-8.5-4.4q-2-1.26-4-2.67l-.88-.67c2,1.42.66.51.22.15-.62-.5-1.23-1-1.83-1.54-1.2-1.06-2.35-2.16-3.46-3.32-.52-.54-1-1.1-1.53-1.67-.3-.34-.59-.69-.88-1s-1.19-1.79.08.14a57.86,57.86,0,0,1-5.17-8.84l.76,1.8a33.43,33.43,0,0,1-2.32-8.13l.27,2a25,25,0,0,1,0-6.69l-.27,2a22.56,22.56,0,0,1,1.36-5l-.75,1.79c.2-.46.41-.93.64-1.38a8,8,0,0,0,.75-5.78,7.62,7.62,0,0,0-3.44-4.48c-3.39-1.79-8.41-1.07-10.27,2.69Z"/></g></svg>