<svg xmlns="http://www.w3.org/2000/svg" viewBox="0 0 1024 1024"><defs><style>.e9ad10d4-860f-4de7-9ba2-81753e4fcbaa{fill:#fff;}.b85f6e64-196e-43c6-9e3e-1b5715e24964{fill:#0f16f8;}</style></defs><g id="eb921b11-8e75-4714-9a9d-2c95c75c8a6f" data-name="Layer 5"><g id="f8895014-1250-486d-a86d-19dc1c820b88" data-name="큐"><path id="a1fadfdd-b6f6-4211-9f18-9eaa2e04a63a" data-name="질문이" class="e9ad10d4-860f-4de7-9ba2-81753e4fcbaa" d="M720.56,110.26c74.18,35,147.24,70.09,195.85,127.69s72.15,137.19,84.2,220.64c12,82.89,12.58,170.2-16.57,246.67-29.72,76.51-89.15,142.19-160.27,190.9s-153.36,80.37-239.24,90.39c-85.84,10.58-174.72,0-253.42-35.13C253,916.22,185,856.43,130.05,784.75c-55.51-71.63-98-154.58-110.47-243.06s5-181.93,49.36-258.09,115.17-135,190.7-178.43c76.1-43.52,157-71.13,234.51-68C572.26,40.82,646.94,75.21,720.56,110.26Z"/><path class="b85f6e64-196e-43c6-9e3e-1b5715e24964" d="M418.61,415.52a12.9,12.9,0,0,0,8.84-3.66,12.49,12.49,0,0,0,0-17.67,12.48,12.48,0,0,0-17.68,0,12.49,12.49,0,0,0,0,17.67,13,13,0,0,0,8.84,3.66Z"/><path class="b85f6e64-196e-43c6-9e3e-1b5715e24964" d="M692.12,467.24a12.9,12.9,0,0,0,8.84-3.66,12.51,12.51,0,0,0,0-17.68,13,13,0,0,0-8.84-3.66,12.88,12.88,0,0,0-8.84,3.66,12.51,12.51,0,0,0,0,17.68,13,13,0,0,0,8.84,3.66Z"/><path class="b85f6e64-196e-43c6-9e3e-1b5715e24964" d="M482.68,489.37c.21,16.19.48,32.94,5.71,48.43a68.64,68.64,0,0,0,10.06,19.82,49.71,49.71,0,0,0,7.95,8.63,57.3,57.3,0,0,0,11.1,7.19c15.23,7.41,33.32,13,50.19,8.15,14.49-4.14,25.76-15.21,33.68-27.64a120.89,120.89,0,0,0,10.42-21.62c2.75-7.17,5-14.52,7.13-21.88q.81-2.79,1.6-5.56l-14.69,6a68.61,68.61,0,0,0,28.23,11.47c2.76.42,5.2.45,7.71-1a10,10,0,0,0,3.59-13.68c-1.32-2-3.47-4.22-6-4.6a59.81,59.81,0,0,1-14.13-4l2.39,1a66,66,0,0,1-11.72-6.47c-2.58-1.78-6.15-1.66-8.9-.5a9.84,9.84,0,0,0-5.79,6.48c-3.07,10.75-6.16,21.54-10.51,31.86l1-2.39a92.31,92.31,0,0,1-11.62,20.49l1.56-2a59.88,59.88,0,0,1-10.24,10.38l2-1.57a43.14,43.14,0,0,1-9.51,5.6l2.39-1a37.93,37.93,0,0,1-9.34,2.49l2.65-.36a46.57,46.57,0,0,1-12-.14l2.66.36A82.81,82.81,0,0,1,530,557.32l2.39,1a60.09,60.09,0,0,1-13.18-7.22l2,1.56a41.59,41.59,0,0,1-7.11-7.17l1.57,2a57.49,57.49,0,0,1-7.16-12.45l1,2.39a86.81,86.81,0,0,1-5.71-21.91l.36,2.66c-1.27-9.56-1.42-19.22-1.54-28.85a10.35,10.35,0,0,0-2.93-7.07,10.18,10.18,0,0,0-7.07-2.93c-5.36.24-10.07,4.4-10,10Z"/></g></g></svg>