<svg xmlns="http://www.w3.org/2000/svg" viewBox="0 0 1024 1024"><defs><style>.b5f958c9-b3b1-4f87-9803-9d86e96f82da{fill:#fff;}.b98dd221-4624-49ad-a89a-194c0dd11217{fill:#0f16f8;}</style></defs><g id="b67b91f4-e236-46e3-9b02-4cb7fe0ddb6c" data-name="Layer 2"><path id="adc6c960-db10-48ad-a38c-50261abda269" data-name="blob" class="b5f958c9-b3b1-4f87-9803-9d86e96f82da" d="M586.41,62.25c80.42,11.19,159.82,22.8,222.75,62.89S917.81,233.5,953.83,308.8c35.8,74.79,62.09,157.13,57.1,238-5.5,81.08-42.29,160.68-95.13,227.69s-121.2,121.2-199.41,156c-78,35.33-165.1,51.57-249.84,41.57-84.23-10.21-166.1-46.67-239.18-98.19C153.78,822.56,89.19,756.69,51.26,676.77s-49-173.39-29.5-258.46,69-161.52,127.57-224.88C208.4,129.85,276.72,79.89,350.88,60,425.77,40.39,506.5,50.85,586.41,62.25Z"/><path class="b98dd221-4624-49ad-a89a-194c0dd11217" d="M406.24,441a15.47,15.47,0,0,0,10.61-4.39A15.23,15.23,0,0,0,421.24,426c-.17-3.88-1.45-7.9-4.39-10.6a15,15,0,0,0-21.21,0,15.19,15.19,0,0,0-4.4,10.6c.18,3.88,1.45,7.91,4.4,10.61a15.59,15.59,0,0,0,10.6,4.39Z"/><path class="b98dd221-4624-49ad-a89a-194c0dd11217" d="M627.74,416.61a15.48,15.48,0,0,0,10.6-4.4,15.19,15.19,0,0,0,4.4-10.6c-.18-3.88-1.45-7.91-4.4-10.61a15,15,0,0,0-21.21,0,15.23,15.23,0,0,0-4.39,10.61c.17,3.87,1.45,7.9,4.39,10.6a15.57,15.57,0,0,0,10.61,4.4Z"/><path class="b98dd221-4624-49ad-a89a-194c0dd11217" d="M595.8,519.22c-3.59-13.3-7.37-27-15-38.67a60.69,60.69,0,0,0-13.77-15,42.59,42.59,0,0,0-18.44-7.92c-13.87-2.51-28.91-3-41.79,3.56-11.6,5.88-19,17.38-23.43,29.24-2.76,7.47-4.09,15.35-5,23.24s-1.2,15.88-1.48,23.84l9.5-7.23a60.58,60.58,0,0,0-26.43-3.1,8.15,8.15,0,0,0-5.3,2.19,7.5,7.5,0,0,0,0,10.61c1.37,1.26,3.37,2.41,5.3,2.2a54.41,54.41,0,0,1,13.13.12l-2-.27a59.43,59.43,0,0,1,11.3,2.71c4.79,1.66,9.34-2.65,9.49-7.23.3-8.75.62-17.51,1.77-26.19l-.27,2a85.9,85.9,0,0,1,5.47-21.46l-.76,1.8a59.31,59.31,0,0,1,3.57-7.13c.65-1.09,1.35-2.16,2.08-3.2.37-.52,2-2.4.29-.45.41-.47.79-1,1.2-1.44a36.15,36.15,0,0,1,2.56-2.69c.44-.42.9-.84,1.36-1.24l.71-.59c1-.8-.19.25-.51.37a8.35,8.35,0,0,0,1.49-1.07q.84-.56,1.71-1.08a35.53,35.53,0,0,1,3.9-2l-1.79.76a42.51,42.51,0,0,1,10.51-2.8l-2,.27a74.72,74.72,0,0,1,19.42.35l-2-.27a51.39,51.39,0,0,1,12.76,3.1l-1.79-.76a35.25,35.25,0,0,1,4.11,2.09q1,.58,1.92,1.23c.58.4,2.56,2.07.64.43a55.77,55.77,0,0,1,6.72,6.59l.76.92c.35.44,1,1.59-.19-.25.44.67,1,1.29,1.42,2q1.38,2,2.61,4.07a79.23,79.23,0,0,1,4.69,9.46l-.76-1.79c3.34,8,5.62,16.34,7.88,24.68,1,3.79,5.38,6.48,9.22,5.24a7.64,7.64,0,0,0,5.24-9.23Z"/><path class="b98dd221-4624-49ad-a89a-194c0dd11217" d="M406.18,277.62c-8.62,17.4,1.73,37,15.62,48.21a71.49,71.49,0,0,0,46.41,15.93,67.13,67.13,0,0,0,44.62-18.64,70.75,70.75,0,0,0,21.4-43.23c1-9.19,0-19.67-5.41-27.47-5.92-8.56-16.12-14-26.64-11.52-9.05,2.18-15.93,10.48-18.11,19.3-2.42,9.74.58,19.95,5.78,28.26,8.48,13.54,21.66,23.27,36.39,29.07a83.46,83.46,0,0,0,44.25,4.28c15.11-2.54,30.09-10.09,40.29-21.66,6.05-6.86,10.51-15,11.74-24.19a36.93,36.93,0,0,0-5.1-24.71,32.41,32.41,0,0,0-9.46-9.56c-3.28-2.16-8.44-.75-10.26,2.69a7.68,7.68,0,0,0,2.69,10.27l.73.49c1,.73-.28-.34-.55-.44a5.62,5.62,0,0,1,1.32,1.13,28.28,28.28,0,0,1,2.23,2.41c.52.61-1.2-1.65-.44-.56l.4.56c.33.48.64,1,.93,1.46a31.23,31.23,0,0,1,1.57,3.11l-.76-1.79a31,31,0,0,1,2.11,7.8l-.27-2a32.61,32.61,0,0,1,0,8.14l.26-2a34.07,34.07,0,0,1-2.41,8.57l.76-1.79a40.16,40.16,0,0,1-2.36,4.62c-.43.72-.88,1.42-1.35,2.11-.21.32-.43.64-.66.95-.34.47-1.59,1.85,0,0a73.11,73.11,0,0,1-7,7.28c-.64.56-1.3,1.09-2,1.62-.46.35-.21.16.74-.58l-.62.47-.95.69q-1.92,1.37-3.93,2.58a63.92,63.92,0,0,1-8.12,4.14l1.79-.75A70.35,70.35,0,0,1,564,307.73l2-.27a76.78,76.78,0,0,1-19.92,0l2,.27a77.7,77.7,0,0,1-19.56-5.33l1.79.76a72.39,72.39,0,0,1-9.59-4.94c-1.53-.94-3-1.93-4.48-3l-1.08-.81c-1-.75,1.64,1.3.19.14-.7-.56-1.4-1.13-2.07-1.72a63.36,63.36,0,0,1-7.53-7.75c-.35-.42-1.34-1.91,0,0-.32-.46-.68-.9-1-1.36-.66-.91-1.29-1.84-1.89-2.8a44.49,44.49,0,0,1-3.13-6l.75,1.79a32.88,32.88,0,0,1-2.25-8l.26,2a25.07,25.07,0,0,1-.06-6.3l-.27,2a22.94,22.94,0,0,1,1.49-5.45l-.75,1.79a21.78,21.78,0,0,1,1.64-3.14c.21-.34,1.28-1.78.41-.68s-.13.18.07-.06.38-.44.58-.65c.35-.38.72-.75,1.11-1.1l.65-.56c.66-.58-1.55,1.09-.57.44a19.19,19.19,0,0,1,3-1.67l-1.79.76a15.43,15.43,0,0,1,3.63-1l-2,.26a16.22,16.22,0,0,1,4.06,0l-2-.26a17.92,17.92,0,0,1,3.93,1.09l-1.79-.76a19.81,19.81,0,0,1,3.3,1.78c.26.17.52.37.77.55.68.46-1.49-1.3-.47-.35.46.43.95.84,1.39,1.29s.86.94,1.27,1.42c.71.83-.51-.57-.47-.62s.48.69.54.78a24.24,24.24,0,0,1,2,3.79l-.75-1.79a32.19,32.19,0,0,1,2.14,8.13l-.26-2A50.51,50.51,0,0,1,519.1,281l.26-2a61,61,0,0,1-4.19,15.34l.76-1.79a65.07,65.07,0,0,1-4.21,8.23c-.79,1.3-1.62,2.56-2.49,3.8-.46.64-.93,1.27-1.4,1.9s.72-.88.62-.8a2.79,2.79,0,0,0-.34.43c-.27.33-.53.66-.81,1a64,64,0,0,1-6.41,6.66c-.54.49-1.09,1-1.65,1.43l-.84.69-.42.34c-.78.63.54-.43.66-.5-1.33.78-2.54,1.87-3.85,2.72a60,60,0,0,1-9.27,4.92l1.79-.76a58.78,58.78,0,0,1-14.49,3.92l2-.26a63.88,63.88,0,0,1-16.52,0l2,.27a65.71,65.71,0,0,1-16.68-4.56l1.79.76a64.38,64.38,0,0,1-8.49-4.4q-2-1.26-4-2.68l-.88-.66c2,1.41.66.51.22.15-.62-.5-1.23-1-1.83-1.54-1.2-1.06-2.35-2.16-3.46-3.32-.52-.54-1-1.1-1.53-1.67-.3-.34-.6-.69-.88-1s-1.19-1.79.08.14a57.86,57.86,0,0,1-5.17-8.84l.75,1.8a33.86,33.86,0,0,1-2.31-8.13l.27,2a25.4,25.4,0,0,1,0-6.69l-.26,2a21.53,21.53,0,0,1,1.36-5l-.75,1.79q.3-.7.63-1.38a8,8,0,0,0,.76-5.78,7.65,7.65,0,0,0-3.45-4.49c-3.38-1.79-8.4-1.06-10.26,2.7Z"/></g></svg>